<svg xmlns="http://www.w3.org/2000/svg" xmlns:xlink="http://www.w3.org/1999/xlink" style="margin:auto;background:#1a1a1a;display:block;z-index:1;position:relative" width="1872" height="969" preserveAspectRatio="xMidYMid" viewBox="0 0 1872 969">
<g transform="translate(936,484.5) scale(1,1) translate(-936,-484.5)"><defs>
  <path id="path-swd9vjyqs5l-1" d="M-35 -35L35 -35L35 35L-35 35Z" fill="none" stroke="inherit" stroke-width="4.333333333333334" transform="scale(0.3)"></path>
  <path id="path-swd9vjyqs5l-2" d="M0 -37A37 37 0 0 1 0 37A37 37 0 0 1 0 -37" fill="none" stroke="inherit" stroke-width="4.333333333333334" transform="scale(0.3)"></path>
  <path id="path-swd9vjyqs5l-3" d="M0 -34.641L40 34.641L-40 34.641Z" fill="none" stroke="inherit" stroke-width="4.333333333333334" transform="scale(0.3)"></path>
</defs><path id="path0" d="M 123.58911985577966 245.34067209210212
c 0 64.87319719541469 -15.873229101005721 18.63379068378933 -34.50701978479505 18.63379068378933
S 54.57508028618956 310.2138692875168 54.57508028618956 245.34067209210212
s 15.873229101005721 -18.63379068378933 34.50701978479505 -18.63379068378933
S 123.58911985577966 180.46747489668743 123.58911985577966 245.34067209210212
z" fill="none" stroke="none"></path>
<use xlink:href="#path-swd9vjyqs5l-3" x="0" y="0" stroke="#bda0b2">
  <animateMotion begin="-0.23880184013583827s" dur="17.346183679767954s" keyPoints="0;1" keyTimes="0;1" repeatCount="indefinite" calcMode="linear">
    <mpath xlink:href="#path0"></mpath>
  </animateMotion>
</use><path id="path1" d="M 237.59040470096141 175.916976424131
c 0 53.4071881759111 -13.067716255808033 15.340362561165955 -28.40807881697399 15.340362561165955
S 180.77424706701345 229.3241646000421 180.77424706701345 175.916976424131
s 13.067716255808033 -15.340362561165955 28.40807881697399 -15.340362561165955
S 237.59040470096141 122.5097882482199 237.59040470096141 175.916976424131
z" fill="none" stroke="none"></path>
<use xlink:href="#path-swd9vjyqs5l-3" x="0" y="0" stroke="#bda0b2">
  <animateMotion begin="-1.4791042502523144s" dur="16.85483160290844s" keyPoints="0;1" keyTimes="0;1" repeatCount="indefinite" calcMode="linear">
    <mpath xlink:href="#path1"></mpath>
  </animateMotion>
</use><path id="path2" d="M 342.2635541090569 107.34958684086497
c 0 62.70177865910229 -15.341924565525026 18.01008535952938 -33.35200992505441 18.01008535952938
S 275.5595342589481 170.05136549996726 275.5595342589481 107.34958684086497
s 15.341924565525026 -18.01008535952938 33.35200992505441 -18.01008535952938
S 342.2635541090569 44.647808181762684 342.2635541090569 107.34958684086497
z" fill="none" stroke="none"></path>
<use xlink:href="#path-swd9vjyqs5l-2" x="0" y="0" stroke="#0055a5">
  <animateMotion begin="-4.449075707187217s" dur="14.22306970087375s" keyPoints="1;0" keyTimes="0;1" repeatCount="indefinite" calcMode="linear">
    <mpath xlink:href="#path2"></mpath>
  </animateMotion>
</use><path id="path3" d="M 347.222446546843 653.4017313358706
c 0 26.858752293964304 -6.571822369799777 7.714747999330173 -14.286570369129949 7.714747999330173
S 318.6493058085831 680.260483629835 318.6493058085831 653.4017313358706
s 6.571822369799777 -7.714747999330173 14.286570369129949 -7.714747999330173
S 347.222446546843 626.5429790419063 347.222446546843 653.4017313358706
z" fill="none" stroke="none"></path>
<use xlink:href="#path-swd9vjyqs5l-2" x="0" y="0" stroke="#bda0b2">
  <animateMotion begin="-4.022966867923189s" dur="17.05248127660502s" keyPoints="0;1" keyTimes="0;1" repeatCount="indefinite" calcMode="linear">
    <mpath xlink:href="#path3"></mpath>
  </animateMotion>
</use><path id="path4" d="M 486.8481847056436 400.8228056409138
c 0 50.6178251728816 -12.385212542300817 14.539162549657483 -26.9243750919583 14.539162549657483
S 432.9994345217269 451.44063081379545 432.9994345217269 400.8228056409138
s 12.385212542300817 -14.539162549657483 26.9243750919583 -14.539162549657483
S 486.8481847056436 350.2049804680322 486.8481847056436 400.8228056409138
z" fill="none" stroke="none"></path>
<use xlink:href="#path-swd9vjyqs5l-2" x="0" y="0" stroke="#d8f05b">
  <animateMotion begin="-4.355549235976578s" dur="12.974948870004429s" keyPoints="1;0" keyTimes="0;1" repeatCount="indefinite" calcMode="linear">
    <mpath xlink:href="#path4"></mpath>
  </animateMotion>
</use><path id="path5" d="M 607.25110221867 98.7633858528219
c 0 25.596968717486916 -6.2630880904489254 7.352320801831349 -13.615408892280275 7.352320801831349
S 580.0202844341095 124.36035457030881 580.0202844341095 98.7633858528219
s 6.2630880904489254 -7.352320801831349 13.615408892280275 -7.352320801831349
S 607.25110221867 73.16641713533498 607.25110221867 98.7633858528219
z" fill="none" stroke="none"></path>
<use xlink:href="#path-swd9vjyqs5l-2" x="0" y="0" stroke="#0055a5">
  <animateMotion begin="-2.8033694235949103s" dur="16.730164435026907s" keyPoints="0;1" keyTimes="0;1" repeatCount="indefinite" calcMode="linear">
    <mpath xlink:href="#path5"></mpath>
  </animateMotion>
</use><path id="path6" d="M 691.7362573634156 447.73084625567566
c 0 27.298190292048258 -6.679344433160743 7.840969551971308 -14.520313985132052 7.840969551971308
S 662.6956293931515 475.02903654772393 662.6956293931515 447.73084625567566
s 6.679344433160743 -7.840969551971308 14.520313985132052 -7.840969551971308
S 691.7362573634156 420.4326559636274 691.7362573634156 447.73084625567566
z" fill="none" stroke="none"></path>
<use xlink:href="#path-swd9vjyqs5l-3" x="0" y="0" stroke="#d8f05b">
  <animateMotion begin="-0.5302876036628024s" dur="18.999447396160868s" keyPoints="1;0" keyTimes="0;1" repeatCount="indefinite" calcMode="linear">
    <mpath xlink:href="#path6"></mpath>
  </animateMotion>
</use><path id="path7" d="M 851.4653736408271 79.40994905588471
c 0 60.89834858772474 -14.900659760826265 17.492078849665617 -32.39273861049188 17.492078849665617
S 786.6798964198434 140.30829764360945 786.6798964198434 79.40994905588471
s 14.900659760826265 -17.492078849665617 32.39273861049188 -17.492078849665617
S 851.4653736408271 18.51160046815997 851.4653736408271 79.40994905588471
z" fill="none" stroke="none"></path>
<use xlink:href="#path-swd9vjyqs5l-1" x="0" y="0" stroke="#0055a5">
  <animateMotion begin="-2.7194356961500397s" dur="10.944355685511404s" keyPoints="1;0" keyTimes="0;1" repeatCount="indefinite" calcMode="linear">
    <mpath xlink:href="#path7"></mpath>
  </animateMotion>
</use><path id="path8" d="M 951.2415091677848 295.9763104879766
c 0 51.10005828736518 -12.503205751163819 14.677676316583614 -27.180882067747433 14.677676316583614
S 896.8797450322899 347.0763687753418 896.8797450322899 295.9763104879766
s 12.503205751163819 -14.677676316583614 27.180882067747433 -14.677676316583614
S 951.2415091677848 244.87625220061142 951.2415091677848 295.9763104879766
z" fill="none" stroke="none"></path>
<use xlink:href="#path-swd9vjyqs5l-3" x="0" y="0" stroke="#bda0b2">
  <animateMotion begin="-2.48053501741801s" dur="12.075563804318987s" keyPoints="0;1" keyTimes="0;1" repeatCount="indefinite" calcMode="linear">
    <mpath xlink:href="#path8"></mpath>
  </animateMotion>
</use><path id="path9" d="M 996.3844059815374 99.38582311078783
c 0 22.027601229462615 -5.389732215719575 6.327076948888198 -11.716809164607774 6.327076948888198
S 972.9507876523219 121.41342434025044 972.9507876523219 99.38582311078783
s 5.389732215719575 -6.327076948888198 11.716809164607774 -6.327076948888198
S 996.3844059815374 77.3582218813252 996.3844059815374 99.38582311078783
z" fill="none" stroke="none"></path>
<use xlink:href="#path-swd9vjyqs5l-1" x="0" y="0" stroke="#0055a5">
  <animateMotion begin="-3.999279131895058s" dur="13.858940824653342s" keyPoints="1;0" keyTimes="0;1" repeatCount="indefinite" calcMode="linear">
    <mpath xlink:href="#path9"></mpath>
  </animateMotion>
</use><path id="path10" d="M 1128.7367936018684 728.0325338255283
c 0 40.632030294497504 -9.941879752908964 11.670902318632262 -21.612782071541226 11.670902318632262
S 1085.511229458786 768.6645641200258 1085.511229458786 728.0325338255283
s 9.941879752908964 -11.670902318632262 21.612782071541226 -11.670902318632262
S 1128.7367936018684 687.4005035310307 1128.7367936018684 728.0325338255283
z" fill="none" stroke="none"></path>
<use xlink:href="#path-swd9vjyqs5l-1" x="0" y="0" stroke="#bda0b2">
  <animateMotion begin="-2.5070368016618216s" dur="15.270519361277078s" keyPoints="0;1" keyTimes="0;1" repeatCount="indefinite" calcMode="linear">
    <mpath xlink:href="#path10"></mpath>
  </animateMotion>
</use><path id="path11" d="M 1238.6242136019778 240.9236935316119
c 0 49.69746084070914 -12.160017014216065 14.274802581905819 -26.434819596121883 14.274802581905819
S 1185.7545744097338 290.62115437232103 1185.7545744097338 240.9236935316119
s 12.160017014216065 -14.274802581905819 26.434819596121883 -14.274802581905819
S 1238.6242136019778 191.22623269090275 1238.6242136019778 240.9236935316119
z" fill="none" stroke="none"></path>
<use xlink:href="#path-swd9vjyqs5l-2" x="0" y="0" stroke="#d8f05b">
  <animateMotion begin="-2.2294475489802013s" dur="15.600859848872785s" keyPoints="0;1" keyTimes="0;1" repeatCount="indefinite" calcMode="linear">
    <mpath xlink:href="#path11"></mpath>
  </animateMotion>
</use><path id="path12" d="M 1311.1742024576056 146.62663104264888
c 0 51.94884484428548 -12.710887568282615 14.92147671059264 -27.632364278875254 14.92147671059264
S 1255.9094738998551 198.57547588693436 1255.9094738998551 146.62663104264888
s 12.710887568282615 -14.92147671059264 27.632364278875254 -14.92147671059264
S 1311.1742024576056 94.6777861983634 1311.1742024576056 146.62663104264888
z" fill="none" stroke="none"></path>
<use xlink:href="#path-swd9vjyqs5l-1" x="0" y="0" stroke="#0055a5">
  <animateMotion begin="-0.750400071416607s" dur="19.749660664331877s" keyPoints="1;0" keyTimes="0;1" repeatCount="indefinite" calcMode="linear">
    <mpath xlink:href="#path12"></mpath>
  </animateMotion>
</use><path id="path13" d="M 1398.8400566891373 71.21831218155344
c 0 20.194850739756077 -4.941293266110529 5.800648616738449 -10.741941882848977 5.800648616738449
S 1377.3561729234393 91.41316292130952 1377.3561729234393 71.21831218155344
s 4.941293266110529 -5.800648616738449 10.741941882848977 -5.800648616738449
S 1398.8400566891373 51.023461441797366 1398.8400566891373 71.21831218155344
z" fill="none" stroke="none"></path>
<use xlink:href="#path-swd9vjyqs5l-2" x="0" y="0" stroke="#bda0b2">
  <animateMotion begin="-2.51632946624159s" dur="14.537414463303959s" keyPoints="1;0" keyTimes="0;1" repeatCount="indefinite" calcMode="linear">
    <mpath xlink:href="#path13"></mpath>
  </animateMotion>
</use><path id="path14" d="M 1513.0455081225525 550.8962762513048
c 0 41.061798380901116 -10.047035774050272 11.79434634345032 -21.841382117500594 11.79434634345032
S 1469.3627438875512 591.9580746322059 1469.3627438875512 550.8962762513048
s 10.047035774050272 -11.79434634345032 21.841382117500594 -11.79434634345032
S 1513.0455081225525 509.8344778704037 1513.0455081225525 550.8962762513048
z" fill="none" stroke="none"></path>
<use xlink:href="#path-swd9vjyqs5l-2" x="0" y="0" stroke="#d8f05b">
  <animateMotion begin="-2.2088596243264345s" dur="17.074482989352674s" keyPoints="0;1" keyTimes="0;1" repeatCount="indefinite" calcMode="linear">
    <mpath xlink:href="#path14"></mpath>
  </animateMotion>
</use><path id="path15" d="M 1569.0925947410049 429.1541508973913
c 0 30.634502832326348 -7.495676224930914 8.799272090136292 -16.294948315067206 8.799272090136292
S 1536.5026981108706 459.7886537297176 1536.5026981108706 429.1541508973913
s 7.495676224930914 -8.799272090136292 16.294948315067206 -8.799272090136292
S 1569.0925947410049 398.5196480650649 1569.0925947410049 429.1541508973913
z" fill="none" stroke="none"></path>
<use xlink:href="#path-swd9vjyqs5l-2" x="0" y="0" stroke="#bda0b2">
  <animateMotion begin="-3.307338050503721s" dur="19.96966123104656s" keyPoints="1;0" keyTimes="0;1" repeatCount="indefinite" calcMode="linear">
    <mpath xlink:href="#path15"></mpath>
  </animateMotion>
</use><path id="path16" d="M 1749.1100276105676 598.1907040288457
c 0 58.62374412872257 -14.344107605964032 16.83873501569691 -31.182842621660942 16.83873501569691
S 1686.7443423672457 656.8144481575683 1686.7443423672457 598.1907040288457
s 14.344107605964032 -16.83873501569691 31.182842621660942 -16.83873501569691
S 1749.1100276105676 539.5669599001232 1749.1100276105676 598.1907040288457
z" fill="none" stroke="none"></path>
<use xlink:href="#path-swd9vjyqs5l-3" x="0" y="0" stroke="#0055a5">
  <animateMotion begin="-1.8406515759159647s" dur="11.439562408150659s" keyPoints="0;1" keyTimes="0;1" repeatCount="indefinite" calcMode="linear">
    <mpath xlink:href="#path16"></mpath>
  </animateMotion>
</use><path id="path17" d="M 1825.3833969267293 515.3907262073623
c 0 57.23625989395836 -14.004616782564279 16.440202309966764 -30.44481909253104 16.440202309966764
S 1764.493758741667 572.6269861013207 1764.493758741667 515.3907262073623
s 14.004616782564279 -16.440202309966764 30.44481909253104 -16.440202309966764
S 1825.3833969267293 458.1544663134039 1825.3833969267293 515.3907262073623
z" fill="none" stroke="none"></path>
<use xlink:href="#path-swd9vjyqs5l-1" x="0" y="0" stroke="#d8f05b">
  <animateMotion begin="-1.8663658209169842s" dur="15.232747917037397s" keyPoints="1;0" keyTimes="0;1" repeatCount="indefinite" calcMode="linear">
    <mpath xlink:href="#path17"></mpath>
  </animateMotion>
</use></g>
</svg>